<svg xmlns="http://www.w3.org/2000/svg" xmlns:xlink="http://www.w3.org/1999/xlink" enable-background="new 0 0 512 512" height="512px" version="1.1" viewBox="0 0 512 512" width="512px" xml:space="preserve">
  <style>
	.style0{
		fill:	#eeeeee;
	}
	.style1{
		opacity:	0.03;
		fill:	#FFFFFF;
	}
</style>
  <g>
    <path d="M111.642 112.146c-53.535 53.535-53.586 140.391-0.051 193.9 c45.764 45.8 116 52.2 168.6 19.978l105.04 105.04c12.495 12.5 32.8 12.5 45.3 0 c12.495-12.494 12.495-32.76 0-45.255L325.434 280.759c32.208-52.645 25.754-122.841-19.968-168.563 C251.931 58.7 165.2 58.6 111.6 112.146z M274.404 274.907c-36.353 36.353-95.297 36.353-131.65 0 c-36.352-36.353-36.352-95.297 0-131.65c36.352-36.352 95.297-36.353 131.6 0C310.757 179.6 310.8 238.6 274.4 274.907z" class="style0"/>
    <path d="M111.519 112.022c-0.013 0.013-0.025 0.025-0.038 0.038l31.112 31.1 c0.013-0.013 0.026-0.025 0.039-0.038c36.352-36.352 95.233-36.416 131.585-0.064c36.353 36.4 36.3 95.233-0.063 131.6 c-0.013 0.014-0.025 0.025-0.038 0.039l156.394 156.394c12.495-12.494 12.495-32.76 0-45.255L325.434 280.8 c32.208-52.645 25.692-122.902-20.029-168.625C251.869 58.6 165.1 58.5 111.5 112.022z" class="style1"/>
  </g>
</svg>
